<svg width="22" height="22" viewBox="0 0 22 22" fill="none" xmlns="http://www.w3.org/2000/svg">
<path d="M12.6214 1.66702C11.7841 0.830109 10.4623 0.787742 9.56357 1.52001C9.50326 1.56886 9.44022 1.61127 9.38414 1.66702L0.335473 10.7161C-0.112012 11.1632 -0.111636 11.8886 0.335473 12.3356C0.391227 12.3914 0.451912 12.4406 0.515322 12.4826C0.705833 12.6086 0.925748 12.6713 1.14566 12.6713C1.36558 12.6713 1.58549 12.6083 1.776 12.4826C1.83937 12.4406 1.852 12.3917 1.90771 12.3356L2.60676 11.5889V16.8195C2.60676 19.1252 4.74024 20.9964 7.15174 20.9964H15.215C17.5783 20.9964 19.4056 19.1646 19.4056 16.8195V11.7836L20.0058 12.336C20.2291 12.5597 20.5464 12.6716 20.8397 12.6716C21.1329 12.6716 21.4379 12.5597 21.6613 12.336C22.1088 11.8889 22.1149 11.1635 21.6674 10.7164L12.6214 1.66702ZM17.1149 16.8199C17.1149 17.9019 16.3154 18.706 15.215 18.706H7.15137C6.0014 18.706 4.89722 17.8653 4.89722 16.8199V9.29846L10.9091 3.28698L17.1149 9.49315V16.8199Z" fill="#010002"/>
<path d="M8.88098 11.2117C8.88098 11.7963 9.0318 12.3457 9.29563 12.8248C9.26815 12.8469 9.2395 12.8668 9.21432 12.8924L6.34012 15.8189C5.97094 16.195 5.97624 16.7994 6.35233 17.169C6.53829 17.3515 6.77995 17.4424 7.02124 17.4424C7.26825 17.4424 7.51527 17.3469 7.70235 17.1568L10.5766 14.2303C10.5983 14.2077 10.6147 14.1825 10.6338 14.1585C11.1103 14.4185 11.6563 14.5666 12.2362 14.5666C14.0861 14.5666 15.5911 13.0615 15.5911 11.2113C15.5911 9.36151 14.0861 7.85645 12.2362 7.85645C10.3856 7.85682 8.88098 9.36151 8.88098 11.2117ZM12.2359 9.00224C13.4542 9.00224 14.4453 9.9934 14.4453 11.2117C14.4453 12.43 13.4542 13.4216 12.2359 13.4216C11.0176 13.4216 10.026 12.4304 10.026 11.2117C10.0263 9.9934 11.0175 9.00224 12.2359 9.00224Z" fill="#010002"/>
</svg>
