<svg width="19" height="19" viewBox="0 0 19 19" fill="none" xmlns="http://www.w3.org/2000/svg">
<path d="M7.12577 7.91634C8.87468 7.91634 10.2924 6.49858 10.2924 4.74967C10.2924 3.00077 8.87468 1.58301 7.12577 1.58301C5.37687 1.58301 3.95911 3.00077 3.95911 4.74967C3.95911 6.49858 5.37687 7.91634 7.12577 7.91634Z" fill="#1C274C"/>
<path d="M7.12577 16.6253C10.1864 16.6253 12.6674 15.2076 12.6674 13.4587C12.6674 11.7098 10.1864 10.292 7.12577 10.292C4.0652 10.292 1.58411 11.7098 1.58411 13.4587C1.58411 15.2076 4.0652 16.6253 7.12577 16.6253Z" fill="#1C274C"/>
<path d="M16.6247 13.459C16.6247 14.7706 15.0132 15.8339 13.0457 15.8339C13.6254 15.2003 14.024 14.405 14.024 13.46C14.024 12.514 13.6244 11.718 13.0436 11.084C15.0112 11.084 16.6247 12.1473 16.6247 13.459Z" fill="#1C274C"/>
<path d="M14.2496 4.75098C14.2496 6.06266 13.1863 7.12598 11.8746 7.12598C11.5886 7.12598 11.3145 7.07542 11.0605 6.98275C11.435 6.32401 11.6489 5.56203 11.6489 4.7501C11.6489 3.93876 11.4353 3.17731 11.0613 2.5189C11.315 2.42643 11.5889 2.37598 11.8746 2.37598C13.1863 2.37598 14.2496 3.4393 14.2496 4.75098Z" fill="#1C274C"/>
</svg>
