<svg width="15" height="15" viewBox="0 0 15 15" fill="none" xmlns="http://www.w3.org/2000/svg">
<g clip-path="url(#clip0_3_816)">
<path d="M14.6429 12.957H10.1117M12.3773 10.6914V15.2227M5.34035 9.9362C6.05803 10.4133 6.91953 10.6914 7.84595 10.6914C8.37558 10.6914 8.88399 10.6006 9.35645 10.4336M7.46842 15.2227H3.7679C3.34495 15.2227 3.13347 15.2227 2.97192 15.1403C2.82982 15.0679 2.71429 14.9524 2.64188 14.8103C2.55957 14.6488 2.55957 14.4373 2.55957 14.0143V12.2018C2.55957 10.9505 3.57393 9.9362 4.8252 9.9362H5.2028M10.8669 4.64974C10.8669 6.3181 9.51436 7.67057 7.84603 7.67057C6.17767 7.67057 4.8252 6.3181 4.8252 4.64974C4.8252 2.98138 6.17767 1.62891 7.84603 1.62891C9.51436 1.62891 10.8669 2.98138 10.8669 4.64974Z" stroke="white" stroke-width="1.74795" stroke-linecap="round" stroke-linejoin="round"/>
</g>
<defs>
<clipPath id="clip0_3_816">
<rect width="15" height="15" fill="white"/>
</clipPath>
</defs>
</svg>
