<svg width="15" height="15" viewBox="0 0 15 15" fill="none" xmlns="http://www.w3.org/2000/svg">
<path d="M12.3889 10.6667H8.7222M10.5555 8.83333V12.5M4.86127 8.22222C5.44202 8.60832 6.13914 8.83333 6.8888 8.83333C7.31737 8.83333 7.72877 8.75982 8.11108 8.6247M6.58331 12.5H3.58886C3.24661 12.5 3.07548 12.5 2.94476 12.4334C2.82977 12.3748 2.73628 12.2813 2.67769 12.1663C2.61108 12.0356 2.61108 11.8645 2.61108 11.5222V10.0556C2.61108 9.04301 3.4319 8.22222 4.44442 8.22222H4.74997M9.33331 3.94444C9.33331 5.29447 8.23887 6.38889 6.88886 6.38889C5.53883 6.38889 4.44442 5.29447 4.44442 3.94444C4.44442 2.59441 5.53883 1.5 6.88886 1.5C8.23887 1.5 9.33331 2.59441 9.33331 3.94444Z" stroke="black" stroke-width="1.41443" stroke-linecap="round" stroke-linejoin="round"/>
</svg>
