<svg width="23" height="23" viewBox="0 0 23 23" fill="none" xmlns="http://www.w3.org/2000/svg">
<path d="M17.0448 2.46387C17.2959 2.46387 17.5312 2.57855 17.6858 2.77157L17.747 2.85899L21.238 8.60897C21.403 8.8807 21.395 9.22003 21.2255 9.48174L21.1629 9.56586L12.1272 20.2444C11.821 20.6063 11.2798 20.6305 10.9422 20.3169L10.8731 20.2444L1.83737 9.56586C1.63202 9.32321 1.587 8.98683 1.71369 8.70188L1.7623 8.60897L5.25337 2.85899C5.38369 2.64433 5.60379 2.50281 5.84905 2.47078L5.95552 2.46387H17.0448ZM14.3875 9.85672H8.61201L11.4993 16.9802L14.3875 9.85672ZM18.7649 9.85672H16.1601L13.764 15.7669L18.7649 9.85672ZM6.83937 9.85672H4.23461L9.23465 15.7653L6.83937 9.85672ZM7.94665 4.10672H6.41634L3.92247 8.21387H6.77283L7.94665 4.10672ZM13.3451 4.10672H9.6544L8.48058 8.21387H14.5189L13.3451 4.10672ZM16.5831 4.10672H15.0528L16.2267 8.21387H19.077L16.5831 4.10672Z" fill="#212121"/>
</svg>
