<svg width="19" height="19" viewBox="0 0 19 19" fill="none" xmlns="http://www.w3.org/2000/svg">
<path d="M9.5 0C4.26128 0 0 4.26106 0 9.5C0 14.7389 4.26106 19 9.5 19C14.7389 19 19 14.7389 19 9.5C19 4.26106 14.7389 0 9.5 0ZM9.5 17.9635C4.83302 17.9635 1.03647 14.167 1.03647 9.5C1.03647 4.83302 4.83302 1.03647 9.5 1.03647C14.167 1.03647 17.9635 4.83302 17.9635 9.5C17.9635 14.167 14.167 17.9635 9.5 17.9635ZM10.0182 8.29086V14.509C10.0182 14.7949 9.78587 15.0272 9.5 15.0272C9.21413 15.0272 8.98181 14.7949 8.98181 14.509V8.29086C8.98181 8.00499 9.21413 7.77267 9.5 7.77267C9.78587 7.77267 10.0182 8.00499 10.0182 8.29086ZM10.0182 4.49077V5.87258C10.0182 6.15845 9.78587 6.39077 9.5 6.39077C9.21413 6.39077 8.98181 6.15845 8.98181 5.87258V4.49077C8.98181 4.2049 9.21413 3.97258 9.5 3.97258C9.78587 3.97258 10.0182 4.2049 10.0182 4.49077Z" fill="#484C52"/>
</svg>
