<svg width="17" height="17" viewBox="0 0 17 17" fill="none" xmlns="http://www.w3.org/2000/svg">
<path fill-rule="evenodd" clip-rule="evenodd" d="M16.9818 8.82115C16.9724 8.96184 16.8552 9.06966 16.7164 9.06966C16.7106 9.06966 16.7045 9.06949 16.6987 9.06915C16.5521 9.05944 16.4412 8.93271 16.451 8.78606C16.5984 6.54857 15.781 4.36371 14.2088 2.79121C12.6368 1.21887 10.4511 0.401952 8.2139 0.54946C8.0669 0.558828 7.94034 0.448112 7.9308 0.301285C7.92126 0.154629 8.03215 0.0279017 8.17915 0.0181927C10.5694 -0.139535 12.9044 0.7341 14.585 2.41477C16.2662 4.09561 17.1395 6.4307 16.9818 8.82115ZM10.6115 6.38863C10.0055 5.78258 9.24186 5.36408 8.40314 5.17842C8.25971 5.14673 8.11766 5.23735 8.08598 5.38077C8.05412 5.52419 8.14491 5.66642 8.2885 5.6981C9.02758 5.86179 9.70073 6.23056 10.2351 6.76506C10.7694 7.29922 11.1383 7.97255 11.3019 8.71179C11.3295 8.83596 11.4398 8.92062 11.5618 8.92062C11.5807 8.92062 11.6001 8.91858 11.6194 8.91415C11.763 8.88246 11.8536 8.74024 11.8219 8.59682C11.6362 7.75844 11.2177 6.99484 10.6115 6.38863ZM12.222 4.77813C13.2759 5.83198 13.8824 7.23859 13.9293 8.73887C13.9339 8.88298 14.0522 8.99676 14.1951 8.99676C14.1982 8.99676 14.2011 8.99676 14.2038 8.99676C14.3508 8.99199 14.466 8.86935 14.4614 8.72235C14.4099 7.08614 13.7484 5.55178 12.5983 4.40187C11.4487 3.25213 9.91433 2.59021 8.27794 2.53877C8.13094 2.53503 8.00813 2.64949 8.00387 2.79649C7.99911 2.94331 8.11408 3.06612 8.26125 3.07072C9.76154 3.11807 11.1682 3.72429 12.222 4.77813ZM14.0764 15.6038C15.042 14.6625 15.5108 13.9408 15.4698 13.4595C15.4365 13.0689 15.0613 12.8103 14.6268 12.5116C14.5309 12.4453 14.4319 12.377 14.3355 12.3067L14.319 12.2964C13.4084 11.7294 12.8591 11.387 12.3332 11.387C11.8449 11.387 11.2915 11.6895 10.3586 12.4646C10.261 12.5461 10.1196 12.5468 10.0206 12.4666C7.53137 10.4432 6.55723 9.46875 4.5335 6.97934C4.45328 6.88055 4.45379 6.739 4.53572 6.64123C5.33049 5.68481 5.62279 5.14299 5.61257 4.64204C5.60218 4.12406 5.26423 3.58087 4.70333 2.68066L4.69345 2.66465C4.62276 2.56824 4.5548 2.46928 4.48854 2.37321C4.17632 1.91944 3.90685 1.52785 3.47999 1.52785C3.00067 1.52785 2.29958 1.99746 1.39596 2.92372C0.710373 3.6461 0.379756 4.17379 0.601019 4.88221C2.72082 9.5471 7.45319 14.2789 12.1181 16.3989C12.266 16.4451 12.4053 16.4677 12.5434 16.4677C13.0623 16.4677 13.5148 16.1374 14.0764 15.6038ZM14.9286 12.0731C14.8334 12.0076 14.7348 11.9398 14.643 11.872C14.6373 11.8679 14.6314 11.8638 14.6258 11.8602L14.6005 11.8447C13.6094 11.2274 13.0107 10.8549 12.3331 10.8549C11.7332 10.8549 11.1397 11.1457 10.1879 11.9166C7.88703 10.0383 6.96161 9.11292 5.08351 6.81207C5.86704 5.84493 6.15678 5.24195 6.14486 4.63148C6.13123 3.96718 5.74287 3.34342 5.15522 2.39961L5.13989 2.37474C5.13597 2.36895 5.13206 2.36299 5.12797 2.35737C5.06035 2.26539 4.99221 2.16694 4.9268 2.07155C4.57983 1.5672 4.18654 0.995731 3.47982 0.995731C2.83341 0.995731 2.0497 1.49072 1.01357 2.55359L1.01101 2.55615C0.361701 3.23986 -0.243323 3.99631 0.0988768 5.05969C0.102283 5.0694 0.10569 5.07877 0.109778 5.08814C2.27744 9.86937 7.13058 14.723 11.9122 16.8903C11.9217 16.8942 11.9309 16.898 11.9404 16.9009C12.1447 16.9668 12.3475 17 12.5434 17C13.3147 17 13.9054 16.5002 14.4438 15.9887L14.4467 15.9864C15.5631 14.8974 16.0571 14.08 16 13.414C15.9453 12.7727 15.4052 12.401 14.9286 12.0731Z" fill="#484C52"/>
</svg>
