<svg width="31" height="18" viewBox="0 0 31 18" fill="none" xmlns="http://www.w3.org/2000/svg">
<path d="M29.6584 18.0004H0.857143C0.385029 18.0004 0 17.6154 0 17.1433C0 16.6712 0.385046 16.2861 0.857143 16.2861H29.6567C30.1288 16.2861 30.5139 16.6712 30.5139 17.1433C30.5155 17.6154 30.1289 18.0004 29.6584 18.0004Z" fill="#AA7D77"/>
<path d="M29.6584 1.71429H0.857143C0.385029 1.71429 0 1.32924 0 0.857143C0 0.385046 0.385046 0 0.857143 0H29.6567C30.1288 0 30.5139 0.385046 30.5139 0.857143C30.5155 1.32926 30.1289 1.71429 29.6584 1.71429Z" fill="#AA7D77"/>
<path d="M29.6585 9.85686H6.94421C6.4721 9.85686 6.08707 9.47182 6.08707 8.99972C6.08707 8.52762 6.47211 8.14258 6.94421 8.14258H29.6585C30.1306 8.14258 30.5156 8.52762 30.5156 8.99972C30.5156 9.47182 30.1289 9.85686 29.6585 9.85686Z" fill="#AA7D77"/>
</svg>
