<svg width="20" height="15" viewBox="0 0 20 15" fill="none" xmlns="http://www.w3.org/2000/svg">
<path fill-rule="evenodd" clip-rule="evenodd" d="M0.25 1C0.25 0.801088 0.329018 0.610322 0.46967 0.46967C0.610322 0.329018 0.801088 0.25 1 0.25H19C19.1989 0.25 19.3897 0.329018 19.5303 0.46967C19.671 0.610322 19.75 0.801088 19.75 1C19.75 1.19891 19.671 1.38968 19.5303 1.53033C19.3897 1.67098 19.1989 1.75 19 1.75H1C0.801088 1.75 0.610322 1.67098 0.46967 1.53033C0.329018 1.38968 0.25 1.19891 0.25 1ZM0.25 5C0.25 4.80109 0.329018 4.61032 0.46967 4.46967C0.610322 4.32902 0.801088 4.25 1 4.25H19C19.1989 4.25 19.3897 4.32902 19.5303 4.46967C19.671 4.61032 19.75 4.80109 19.75 5C19.75 5.19891 19.671 5.38968 19.5303 5.53033C19.3897 5.67098 19.1989 5.75 19 5.75H1C0.801088 5.75 0.610322 5.67098 0.46967 5.53033C0.329018 5.38968 0.25 5.19891 0.25 5ZM18.095 7.393C19.13 7.766 19.75 8.785 19.75 10.036C19.75 10.934 19.226 11.746 18.694 12.358C18.142 12.994 17.462 13.548 16.924 13.945L16.85 14C16.49 14.267 16.082 14.57 15.501 14.57C14.92 14.57 14.511 14.267 14.151 14L14.077 13.945C13.539 13.549 12.859 12.994 12.307 12.358C11.775 11.745 11.251 10.934 11.251 10.036C11.251 8.785 11.871 7.766 12.906 7.393C13.741 7.091 14.676 7.273 15.501 7.853C16.326 7.273 17.261 7.092 18.096 7.393M17.587 8.803C17.25 8.683 16.667 8.733 16.027 9.364C15.8867 9.50202 15.6978 9.57938 15.501 9.57938C15.3042 9.57938 15.1153 9.50202 14.975 9.364C14.335 8.734 13.752 8.682 13.415 8.804C13.094 8.919 12.751 9.28 12.751 10.036C12.751 10.373 12.969 10.833 13.439 11.374C13.889 11.891 14.469 12.371 14.966 12.737C15.199 12.908 15.313 12.99 15.404 13.039C15.464 13.07 15.48 13.07 15.499 13.07H15.503C15.523 13.07 15.539 13.07 15.598 13.039C15.689 12.99 15.803 12.909 16.036 12.737C16.533 12.371 17.114 11.891 17.563 11.374C18.033 10.833 18.251 10.374 18.251 10.036C18.251 9.28 17.908 8.918 17.587 8.803ZM0.25 9C0.25 8.80109 0.329018 8.61032 0.46967 8.46967C0.610322 8.32902 0.801088 8.25 1 8.25H8C8.19891 8.25 8.38968 8.32902 8.53033 8.46967C8.67098 8.61032 8.75 8.80109 8.75 9C8.75 9.19891 8.67098 9.38968 8.53033 9.53033C8.38968 9.67098 8.19891 9.75 8 9.75H1C0.801088 9.75 0.610322 9.67098 0.46967 9.53033C0.329018 9.38968 0.25 9.19891 0.25 9ZM0.25 13C0.25 12.8011 0.329018 12.6103 0.46967 12.4697C0.610322 12.329 0.801088 12.25 1 12.25H8C8.19891 12.25 8.38968 12.329 8.53033 12.4697C8.67098 12.6103 8.75 12.8011 8.75 13C8.75 13.1989 8.67098 13.3897 8.53033 13.5303C8.38968 13.671 8.19891 13.75 8 13.75H1C0.801088 13.75 0.610322 13.671 0.46967 13.5303C0.329018 13.3897 0.25 13.1989 0.25 13Z" fill="#484C52"/>
</svg>
