<svg width="16" height="16" viewBox="0 0 16 16" fill="none" xmlns="http://www.w3.org/2000/svg">
<path d="M15.6762 6.35321L8.88046 0.332584C8.37848 -0.110861 7.62153 -0.110944 7.11921 0.332832L0.323725 6.35321C0.0238693 6.61899 -0.0786389 7.03381 0.0624795 7.40996C0.20368 7.78611 0.553053 8.02917 0.952693 8.02917H2.2094V14.6596C2.2094 15.3987 2.80695 16 3.54149 16H5.41145C5.93683 16 6.36425 15.5699 6.36425 15.0413V10.3597C6.36425 10.2538 6.4499 10.1676 6.55514 10.1676H9.44486C9.5501 10.1676 9.63575 10.2538 9.63575 10.3597V15.0413C9.63575 15.5699 10.0632 16 10.5885 16H12.4585C13.1931 16 13.7906 15.3987 13.7906 14.6596V8.02917H15.0473C15.4469 8.02917 15.7963 7.78611 15.9375 7.40996C16.0786 7.03381 15.9761 6.61899 15.6762 6.35321ZM15.2247 7.13911C15.2108 7.17621 15.1656 7.26256 15.0473 7.26256H13.4097C13.1993 7.26256 13.0287 7.43417 13.0287 7.64586V14.6596C13.0287 14.976 12.7729 15.2334 12.4585 15.2334H10.5885C10.4833 15.2334 10.3977 15.1472 10.3977 15.0413V10.3597C10.3977 9.83105 9.97024 9.401 9.44486 9.401H6.55514C6.02976 9.401 5.60234 9.83105 5.60234 10.3597V15.0413C5.60234 15.1472 5.51669 15.2334 5.41145 15.2334H3.54149C3.22709 15.2334 2.9713 14.976 2.9713 14.6596V7.64586C2.9713 7.43417 2.80075 7.26256 2.59035 7.26256H0.952693C0.834396 7.26256 0.789165 7.17621 0.775278 7.13911C0.761308 7.10202 0.738569 7.00719 0.827282 6.9285L7.62236 0.908534C7.83739 0.718388 8.16228 0.718306 8.37731 0.908286L15.1726 6.9285C15.2614 7.00719 15.2387 7.10202 15.2247 7.13911Z" fill="#484C52"/>
</svg>
