<svg width="26" height="24" viewBox="0 0 26 24" fill="none" xmlns="http://www.w3.org/2000/svg">
<path d="M7.41667 7.33366H18.0833M7.41667 12.667H15.4167M20.75 0.666992C21.8109 0.666992 22.8283 1.08842 23.5784 1.83857C24.3286 2.58871 24.75 3.60613 24.75 4.66699V15.3337C24.75 16.3945 24.3286 17.4119 23.5784 18.1621C22.8283 18.9122 21.8109 19.3337 20.75 19.3337H14.0833L7.41667 23.3337V19.3337H4.75C3.68913 19.3337 2.67172 18.9122 1.92157 18.1621C1.17143 17.4119 0.75 16.3945 0.75 15.3337V4.66699C0.75 3.60613 1.17143 2.58871 1.92157 1.83857C2.67172 1.08842 3.68913 0.666992 4.75 0.666992H20.75Z" stroke="#76797D" stroke-width="0.85" stroke-linecap="round" stroke-linejoin="round"/>
</svg>
