<svg width="14" height="18" viewBox="0 0 14 18" fill="none" xmlns="http://www.w3.org/2000/svg">
<path d="M6.99244 9.00045C6.18833 9.00045 5.40228 8.762 4.73369 8.31526C4.06509 7.86853 3.54399 7.23356 3.23627 6.49066C2.92855 5.74775 2.84804 4.93029 3.00491 4.14163C3.16178 3.35297 3.549 2.62854 4.11759 2.05994C4.68618 1.49135 5.41061 1.10414 6.19927 0.947263C6.98793 0.790389 7.8054 0.870902 8.5483 1.17862C9.2912 1.48634 9.92617 2.00745 10.3729 2.67604C10.8197 3.34463 11.0581 4.13069 11.0581 4.9348C11.0581 6.01307 10.6298 7.04719 9.8673 7.80965C9.10484 8.57211 8.07072 9.00045 6.99244 9.00045ZM6.99244 2.03076C6.41808 2.03076 5.85661 2.20108 5.37905 2.52018C4.90148 2.83928 4.52926 3.29283 4.30946 3.82347C4.08966 4.35411 4.03215 4.93802 4.14421 5.50135C4.25626 6.06467 4.53284 6.58212 4.93898 6.98826C5.34512 7.3944 5.86257 7.67098 6.42589 7.78304C6.98922 7.89509 7.57313 7.83758 8.10377 7.61778C8.63442 7.39798 9.08796 7.02576 9.40706 6.54819C9.72616 6.07063 9.89648 5.50916 9.89648 4.9348C9.89648 4.1646 9.59052 3.42594 9.04591 2.88133C8.5013 2.33672 7.76264 2.03076 6.99244 2.03076ZM12.2197 17.1318H1.76517C1.49114 17.1339 1.22018 17.0739 0.972701 16.9562C0.72522 16.8385 0.507658 16.6661 0.336387 16.4522C0.188545 16.2646 0.0855272 16.0456 0.0351978 15.8121C-0.0151317 15.5786 -0.0114427 15.3366 0.0459836 15.1047C0.818458 12.1949 3.66442 10.1621 6.99244 10.1621C10.3205 10.1621 13.1664 12.1949 13.9157 15.1047C13.9731 15.3366 13.9768 15.5786 13.9265 15.8121C13.8761 16.0456 13.7731 16.2646 13.6253 16.4522C13.4564 16.6631 13.2426 16.8335 12.9994 16.9511C12.7562 17.0687 12.4898 17.1304 12.2197 17.1318ZM6.99244 11.3237C4.23942 11.3237 1.80583 13.0661 1.18437 15.3893C1.16954 15.4488 1.16919 15.5109 1.18334 15.5706C1.19749 15.6302 1.22572 15.6856 1.26568 15.732C1.32576 15.8066 1.40185 15.8667 1.48831 15.908C1.57477 15.9492 1.66939 15.9704 1.76517 15.9701H12.2197C12.317 15.9729 12.4136 15.9534 12.5022 15.9131C12.5907 15.8729 12.6689 15.8129 12.7308 15.7378C12.7697 15.6897 12.7964 15.6328 12.8085 15.5721C12.8206 15.5115 12.8179 15.4487 12.8005 15.3893C12.1791 13.0661 9.74547 11.3237 6.99244 11.3237Z" fill="#484C52"/>
</svg>
