<svg width="20" height="20" viewBox="0 0 20 20" fill="none" xmlns="http://www.w3.org/2000/svg">
<path d="M9.53888 0.921875C4.27942 0.921875 0 5.2013 0 10.4608C0 15.7216 4.27942 19.9996 9.53888 19.9996C14.7983 19.9996 19.0778 15.7216 19.0778 10.4608C19.0778 5.2013 14.7983 0.921875 9.53888 0.921875ZM9.53888 1.50295C14.4787 1.50295 18.4967 5.52089 18.4967 10.4608C18.4967 12.4258 17.854 14.2378 16.7775 15.7174C16.1228 14.8677 14.291 13.3491 9.53888 13.3491C4.7868 13.3491 2.95428 14.8677 2.30022 15.7174C1.22451 14.2378 0.581077 12.4258 0.581077 10.4608C0.581077 5.52089 4.59901 1.50295 9.53888 1.50295ZM9.53888 19.4186C6.78018 19.4186 4.31202 18.1643 2.66729 16.1978C3.40922 15.0711 5.55708 13.9309 9.53888 13.9309C13.52 13.9309 15.6685 15.0711 16.4098 16.1978C14.7657 18.1643 12.2969 19.4186 9.53888 19.4186Z" fill="#484C52"/>
<path d="M9.53894 12.635C11.9107 12.635 13.8403 10.7054 13.8403 8.33362C13.8403 5.96183 11.91 4.03223 9.53894 4.03223C7.16644 4.03223 5.23755 5.96183 5.23755 8.33362C5.23755 10.7054 7.16644 12.635 9.53894 12.635ZM9.53894 4.6133C11.5904 4.6133 13.2593 6.28213 13.2593 8.33362C13.2593 10.3851 11.5904 12.0539 9.53894 12.0539C7.48745 12.0539 5.81863 10.3851 5.81863 8.33362C5.81863 6.28213 7.48745 4.6133 9.53894 4.6133Z" fill="#484C52"/>
</svg>
