<svg width="12" height="15" viewBox="0 0 12 15" fill="none" xmlns="http://www.w3.org/2000/svg">
<path d="M11.9453 11.9329C11.9453 11.9329 10.3865 9.25384 10.1069 8.77335C10.425 8.67631 10.7639 8.59061 10.9047 8.34748C11.1394 7.94237 10.7216 7.27782 10.8313 6.8436C10.9443 6.3967 11.6113 6.01 11.6113 5.55574C11.6113 5.11317 10.9217 4.59614 10.8087 4.15186C10.6982 3.71772 11.1147 3.05244 10.8793 2.64783C10.6438 2.24317 9.8597 2.27642 9.53691 1.96581C9.20478 1.64617 9.20581 0.864113 8.80522 0.649906C8.40299 0.434903 7.74929 0.869426 7.3027 0.766498C6.86119 0.664746 6.46674 0 6.00558 0C5.53758 0 4.79321 0.754049 4.67647 0.781185C4.2301 0.884949 3.57556 0.451488 3.17376 0.667403C2.77354 0.88233 2.77601 1.66446 2.44449 1.98464C2.12223 2.29581 1.33805 2.26401 1.10335 2.66912C0.868684 3.07415 1.28639 3.73855 1.17675 4.173C1.0668 4.60855 0.376587 5.04987 0.376587 5.55358C0.376587 6.00788 1.04524 6.39336 1.15891 6.84003C1.26939 7.27418 0.852934 7.93938 1.08836 8.34414C1.21652 8.56446 1.50732 8.6549 1.79773 8.74185C1.83163 8.75199 1.89573 8.7899 1.85231 8.85317C1.65363 9.19611 0.0544798 11.956 0.0544798 11.956C-0.0727384 12.1755 0.0305695 12.3637 0.283981 12.3744L1.5244 12.4261C1.77781 12.4368 2.0957 12.6209 2.23097 12.8355L2.89287 13.8858C3.02813 14.1003 3.24276 14.0963 3.36994 13.8768C3.36994 13.8768 5.22193 10.6794 5.22268 10.6785C5.25984 10.6351 5.29719 10.644 5.31506 10.6592C5.51769 10.8317 5.80018 11.0038 6.03594 11.0038C6.26715 11.0038 6.48124 10.8418 6.69302 10.6611C6.71025 10.6464 6.75219 10.6163 6.78286 10.6788C6.78335 10.6798 8.63329 13.8597 8.63329 13.8597C8.76081 14.0789 8.97547 14.0826 9.11032 13.8678L9.77036 12.8163C9.90524 12.6016 10.2228 12.4167 10.4762 12.4056L11.7165 12.3516C11.9698 12.3405 12.0728 12.152 11.9453 11.9329ZM8.05553 9.05675C6.68406 9.85463 5.03785 9.76913 3.78047 8.97602C1.93805 7.79588 1.33182 5.35459 2.43941 3.44294C3.55962 1.50924 6.02213 0.826919 7.97325 1.88956C7.9835 1.89514 7.99363 1.90091 8.0038 1.9066C8.01826 1.91461 8.03268 1.92273 8.04707 1.93093C8.649 2.27797 9.17097 2.78165 9.54473 3.42408C10.687 5.38761 10.019 7.91444 8.05553 9.05675Z" fill="#BA928D"/>
<path d="M7.74178 2.50896C7.73609 2.50566 7.73032 2.50258 7.72463 2.49932C6.68236 1.8961 5.35393 1.85199 4.24058 2.49974C2.58842 3.46093 2.02622 5.58702 2.98742 7.23915C3.28072 7.74332 3.68264 8.14577 4.14635 8.43459C4.18578 8.45956 4.22567 8.48412 4.26643 8.50773C5.92038 9.46592 8.04533 8.8999 9.00349 7.24602C9.96161 5.59207 9.39573 3.46716 7.74178 2.50896ZM8.15554 5.21277L7.57642 5.77724C7.39706 5.95205 7.28494 6.29712 7.32734 6.544L7.46404 7.34105C7.5064 7.58794 7.35967 7.69455 7.13795 7.57799L6.42212 7.20165C6.2004 7.0851 5.83761 7.0851 5.61589 7.20165L4.90009 7.57799C4.67837 7.69455 4.53161 7.58794 4.57396 7.34105L4.71067 6.544C4.75303 6.29712 4.64091 5.95205 4.46155 5.77724L3.88246 5.21277C3.70306 5.03795 3.75915 4.86542 4.00702 4.82937L4.8073 4.71308C5.05517 4.67706 5.3487 4.4638 5.45956 4.2392L5.81745 3.51403C5.92831 3.28942 6.10973 3.28942 6.22055 3.51403L6.57849 4.2392C6.68935 4.4638 6.98284 4.67706 7.23075 4.71308L8.03102 4.82937C8.27885 4.86542 8.33491 5.03795 8.15554 5.21277Z" fill="#BA928D"/>
</svg>
