<svg width="21" height="20" viewBox="0 0 21 20" fill="none" xmlns="http://www.w3.org/2000/svg">
<path d="M3.78127 0.875001C3.6479 0.875006 3.51717 0.912118 3.40369 0.982186C3.29021 1.05225 3.19846 1.15252 3.13871 1.27175L0.263711 7.02175C0.201535 7.14555 0.176462 7.28468 0.191508 7.4224C0.206555 7.56011 0.261081 7.69055 0.348524 7.798L9.69227 19.298C9.75967 19.3809 9.8447 19.4478 9.94118 19.4937C10.0377 19.5396 10.1432 19.5634 10.25 19.5634C10.3569 19.5634 10.4624 19.5396 10.5589 19.4937C10.6553 19.4478 10.7404 19.3809 10.8078 19.298L20.1515 7.798C20.2392 7.6907 20.294 7.56033 20.3093 7.42261C20.3246 7.28489 20.2998 7.14569 20.2378 7.02175L17.3628 1.27175C17.3029 1.1523 17.2109 1.05189 17.0972 0.981808C16.9834 0.911725 16.8524 0.874739 16.7188 0.875001H3.78127ZM2.06921 6.625L4.22546 2.3125H7.17234L6.09421 6.625H2.06921ZM2.41565 8.0625H6.12871L8.4474 15.4858L2.41565 8.0625ZM7.63377 8.0625H12.8663L10.25 16.4331L7.63377 8.0625ZM14.3728 8.0625H18.0844L12.0526 15.4858L14.3728 8.0625ZM18.4308 6.625H14.4058L13.3277 2.3125H16.2746L18.4308 6.625ZM12.9238 6.625H7.57627L8.6544 2.3125H11.8456L12.9238 6.625Z" fill="#484C52"/>
</svg>
