<svg width="21" height="18" viewBox="0 0 21 18" fill="none" xmlns="http://www.w3.org/2000/svg">
<path d="M11.905 6.38977C11.8052 6.07815 11.6304 5.79579 11.396 5.56745C11.1616 5.3391 10.8748 5.17176 10.5607 5.08009C10.2465 4.98842 9.91473 4.97522 9.59432 5.04165C9.27391 5.10809 8.97469 5.25212 8.72292 5.46113C8.47114 5.67014 8.27449 5.93773 8.15021 6.24044C8.02594 6.54314 7.97784 6.87172 8.01013 7.19735C8.04241 7.52297 8.15411 7.8357 8.33541 8.10811C8.51671 8.38052 8.76208 8.60428 9.05 8.75977" stroke="#0A1B39" stroke-linecap="round" stroke-linejoin="round"/>
<path d="M7.992 12.779C5.27 12.1583 2.93933 10.232 1 7C3.4 3 6.4 1 10 1C13.332 1 16.15 2.71333 18.454 6.14M16 17L19.35 13.716C19.5554 13.5167 19.7188 13.2782 19.8306 13.0146C19.9423 12.7511 20.0001 12.4678 20.0006 12.1816C20.0011 11.8953 19.9442 11.6119 19.8333 11.3479C19.7224 11.084 19.5598 10.845 19.355 10.645C18.9374 10.2359 18.3764 10.0062 17.7917 10.0051C17.2071 10.004 16.6452 10.2315 16.226 10.639L16.002 10.859L15.779 10.639C15.3614 10.2302 14.8006 10.0007 14.2162 9.99959C13.6318 9.99847 13.0701 10.2258 12.651 10.633C12.4455 10.8323 12.282 11.0707 12.1702 11.3342C12.0583 11.5977 12.0004 11.881 11.9999 12.1672C11.9993 12.4535 12.0561 12.737 12.1669 13.0009C12.2777 13.2648 12.4403 13.5039 12.645 13.704L16 17Z" stroke="#0A1B39" stroke-linecap="round" stroke-linejoin="round"/>
</svg>
