<svg width="20" height="21" viewBox="0 0 20 21" fill="none" xmlns="http://www.w3.org/2000/svg">
<path fill-rule="evenodd" clip-rule="evenodd" d="M10.563 1.46367H9.437L8.792 4.04167L8.145 4.24167C7.76798 4.35785 7.40271 4.50918 7.054 4.69367L6.455 5.01067L4.175 3.64267L3.379 4.43967L4.747 6.71967L4.43 7.31767C4.24516 7.66635 4.0935 8.03162 3.977 8.40867L3.778 9.05567L1.2 9.70067V10.8267L3.778 11.4717L3.978 12.1187C4.09333 12.4973 4.244 12.861 4.43 13.2097L4.747 13.8087L3.379 16.0887L4.176 16.8847L6.456 15.5167L7.054 15.8337C7.40267 16.019 7.76633 16.17 8.145 16.2867L8.792 16.4857L9.437 19.0637H10.563L11.208 16.4857L11.855 16.2857C12.232 16.1695 12.5973 16.0182 12.946 15.8337L13.545 15.5167L15.825 16.8847L16.621 16.0877L15.253 13.8077L15.57 13.2097C15.7553 12.861 15.9063 12.4973 16.023 12.1187L16.222 11.4717L18.8 10.8267V9.70067L16.222 9.05567L16.022 8.40867C15.9058 8.03166 15.7545 7.66638 15.57 7.31767L15.253 6.71867L16.621 4.43867L15.824 3.64267L13.544 5.01067L12.946 4.69367C12.5973 4.50883 12.2321 4.35717 11.855 4.24067L11.208 4.04167L10.563 1.46367ZM13.508 3.63367L15.341 2.53367C15.5321 2.41903 15.7561 2.37153 15.9773 2.39871C16.1985 2.42588 16.4043 2.52618 16.562 2.68367L17.58 3.70167C17.7375 3.85937 17.8378 4.06517 17.865 4.28638C17.8921 4.50759 17.8446 4.73154 17.73 4.92267L16.63 6.75567C16.85 7.169 17.03 7.60234 17.17 8.05567L19.243 8.57467C19.4592 8.62884 19.6512 8.75372 19.7883 8.92946C19.9255 9.10521 20 9.32174 20 9.54467V10.9827C20 11.2056 19.9255 11.4221 19.7883 11.5979C19.6512 11.7736 19.4592 11.8985 19.243 11.9527L17.17 12.4717C17.03 12.925 16.85 13.3583 16.63 13.7717L17.73 15.6047C17.8446 15.7958 17.8921 16.0198 17.865 16.241C17.8378 16.4622 17.7375 16.668 17.58 16.8257L16.562 17.8437C16.4043 18.0012 16.1985 18.1015 15.9773 18.1286C15.7561 18.1558 15.5321 18.1083 15.341 17.9937L13.508 16.8937C13.0947 17.1137 12.6613 17.2937 12.208 17.4337L11.689 19.5067C11.6348 19.7229 11.51 19.9149 11.3342 20.052C11.1585 20.1892 10.9419 20.2637 10.719 20.2637H9.281C9.05807 20.2637 8.84154 20.1892 8.66579 20.052C8.49005 19.9149 8.36517 19.7229 8.311 19.5067L7.792 17.4337C7.3427 17.2948 6.90744 17.114 6.492 16.8937L4.659 17.9937C4.46787 18.1083 4.24392 18.1558 4.02271 18.1286C3.80149 18.1015 3.5957 18.0012 3.438 17.8437L2.42 16.8257C2.26251 16.668 2.16221 16.4622 2.13504 16.241C2.10786 16.0198 2.15536 15.7958 2.27 15.6047L3.37 13.7717C3.14964 13.3562 2.96885 12.921 2.83 12.4717L0.757 11.9527C0.540919 11.8985 0.349098 11.7738 0.211963 11.5983C0.074827 11.4227 0.000228643 11.2064 0 10.9837V9.54567C5.86043e-06 9.32274 0.0745022 9.10621 0.211655 8.93046C0.348809 8.75472 0.540753 8.62984 0.757 8.57567L2.83 8.05667C2.97 7.60334 3.15 7.17001 3.37 6.75667L2.27 4.92367C2.15536 4.73254 2.10786 4.50859 2.13504 4.28738C2.16221 4.06617 2.26251 3.86037 2.42 3.70267L3.438 2.68367C3.5957 2.52618 3.80149 2.42588 4.02271 2.39871C4.24392 2.37153 4.46787 2.41903 4.659 2.53367L6.492 3.63367C6.90533 3.41367 7.33867 3.23367 7.792 3.09367L8.311 1.02067C8.36513 0.804591 8.48986 0.61277 8.6654 0.475635C8.84094 0.338499 9.05724 0.263901 9.28 0.263672H10.718C10.9409 0.263678 11.1575 0.338174 11.3332 0.475327C11.509 0.61248 11.6338 0.804425 11.688 1.02067L12.207 3.09367C12.6603 3.23367 13.0937 3.41367 13.507 3.63367H13.508ZM10 13.0637C10.7426 13.0637 11.4548 12.7687 11.9799 12.2436C12.505 11.7185 12.8 11.0063 12.8 10.2637C12.8 9.52107 12.505 8.80887 11.9799 8.28377C11.4548 7.75867 10.7426 7.46367 10 7.46367C9.25739 7.46367 8.5452 7.75867 8.0201 8.28377C7.495 8.80887 7.2 9.52107 7.2 10.2637C7.2 11.0063 7.495 11.7185 8.0201 12.2436C8.5452 12.7687 9.25739 13.0637 10 13.0637ZM10 14.2637C8.93913 14.2637 7.92172 13.8422 7.17157 13.0921C6.42143 12.342 6 11.3245 6 10.2637C6 9.20281 6.42143 8.18539 7.17157 7.43524C7.92172 6.6851 8.93913 6.26367 10 6.26367C11.0609 6.26367 12.0783 6.6851 12.8284 7.43524C13.5786 8.18539 14 9.20281 14 10.2637C14 11.3245 13.5786 12.342 12.8284 13.0921C12.0783 13.8422 11.0609 14.2637 10 14.2637Z" fill="#484C52"/>
</svg>
