<svg width="15" height="20" viewBox="0 0 15 20" fill="none" xmlns="http://www.w3.org/2000/svg">
<path d="M10.2481 4.536L7.28008 1.568L4.31208 4.536L3.52808 3.752L7.28008 0L11.0321 3.752L10.2481 4.536Z" fill="#484C52"/>
<path d="M6.71997 0.78418H7.83997V12.5442H6.71997V0.78418Z" fill="#484C52"/>
<path d="M12.88 19.2642H1.68C0.728 19.2642 0 18.5362 0 17.5842V7.50422C0 6.55222 0.728 5.82422 1.68 5.82422H5.6V6.94422H1.68C1.344 6.94422 1.12 7.16822 1.12 7.50422V17.5842C1.12 17.9202 1.344 18.1442 1.68 18.1442H12.88C13.216 18.1442 13.44 17.9202 13.44 17.5842V7.50422C13.44 7.16822 13.216 6.94422 12.88 6.94422H8.96V5.82422H12.88C13.832 5.82422 14.56 6.55222 14.56 7.50422V17.5842C14.56 18.5362 13.832 19.2642 12.88 19.2642Z" fill="#484C52"/>
</svg>
