<svg width="20" height="17" viewBox="0 0 20 17" fill="none" xmlns="http://www.w3.org/2000/svg">
<mask id="path-1-inside-1_67_427" fill="white">
<path d="M14.918 13.983H13.6695C13.4914 13.983 13.3469 13.8348 13.3469 13.6522C13.3469 13.4695 13.4914 13.3214 13.6695 13.3214H14.918V12.0411C14.918 11.8584 15.0625 11.7102 15.2406 11.7102C15.4187 11.7102 15.5632 11.8584 15.5632 12.0411V13.3214H16.8116C16.9897 13.3214 17.1342 13.4695 17.1342 13.6522C17.1342 13.8348 16.9897 13.983 16.8116 13.983H15.5632V15.2633C15.5632 15.446 15.4187 15.5941 15.2406 15.5941C15.0625 15.5941 14.918 15.446 14.918 15.2633V13.983ZM15.2406 10.305C16.079 10.305 16.8444 10.6298 17.4225 11.1631C18.7171 9.53733 19.296 7.88227 19.3523 6.38137C19.4203 4.56176 18.7213 2.96447 17.6006 1.92365C17.4687 1.80131 17.4586 1.59367 17.5779 1.4584C17.6972 1.32314 17.8997 1.3128 18.0316 1.43514C19.2876 2.6017 20.0706 4.38247 19.995 6.40544C19.9328 8.06479 19.2926 9.88608 17.8602 11.6558C18.2651 12.2133 18.5046 12.9051 18.5046 13.6529C18.5046 14.5765 18.1391 15.414 17.5485 16.0195C16.9579 16.6251 16.1422 17 15.2408 17C14.3402 17 13.5227 16.6252 12.9331 16.0195C12.8499 15.9343 12.7718 15.8447 12.6978 15.7507C12.3416 15.9437 11.9711 16.1333 11.5847 16.3194C11.11 16.5477 10.6219 16.7665 10.1212 16.975C10.0405 17.0086 9.95399 17.006 9.87922 16.975C3.32877 14.2533 0.574775 10.5029 0.0824758 7.23159C-0.161158 5.61099 0.148845 4.10406 0.829356 2.89098C1.51322 1.67189 2.57094 0.749156 3.81778 0.301178C5.67445 -0.36566 7.94114 0.0168557 9.99938 2.03378C10.8681 1.18255 11.7762 0.622555 12.6751 0.309802C13.7639 -0.0692948 14.8376 -0.0848001 15.8138 0.184875C15.9852 0.2314 16.0877 0.413198 16.0424 0.58894C15.997 0.764699 15.8197 0.8698 15.6483 0.823284C14.7906 0.586359 13.8446 0.601004 12.8827 0.936148C11.9981 1.24372 11.0958 1.82441 10.2322 2.72991L10.2272 2.73422C10.1003 2.86173 9.89697 2.86001 9.7718 2.72991C7.85211 0.71817 5.73748 0.312363 4.03046 0.924944C2.92989 1.32041 1.99314 2.13802 1.38658 3.22008C0.776655 4.30737 0.499406 5.66432 0.720349 7.13148C1.17905 10.1823 3.78857 13.7 10.0011 16.3123C10.4657 16.1175 10.9034 15.9203 11.3126 15.7229C11.6696 15.5506 12.0141 15.3757 12.3443 15.1974C12.1099 14.7356 11.9763 14.21 11.9763 13.6535C11.9763 12.7299 12.3417 11.8924 12.9323 11.2869C13.523 10.6813 14.3396 10.3064 15.2401 10.3064L15.2406 10.305ZM17.0922 11.7533C16.6184 11.2674 15.9639 10.9667 15.2406 10.9667C14.5172 10.9667 13.8619 11.2674 13.3889 11.7533C12.9151 12.2392 12.6219 12.9103 12.6219 13.6521C12.6219 14.394 12.9151 15.0651 13.3889 15.551C13.8628 16.037 14.5172 16.3376 15.2406 16.3376C15.9639 16.3376 16.6184 16.0369 17.0922 15.551C17.5661 15.0651 17.8593 14.394 17.8593 13.6521C17.8593 12.9103 17.566 12.2392 17.0922 11.7533ZM16.668 1.2423C16.5125 1.15442 16.4554 0.953674 16.5411 0.794298C16.6268 0.634909 16.8225 0.576324 16.9779 0.664203L17.02 0.688328C17.1754 0.776208 17.2325 0.976952 17.1468 1.13633C17.0611 1.29572 16.8654 1.3543 16.71 1.26642L16.668 1.2423Z"/>
</mask>
<path d="M14.918 13.983H13.6695C13.4914 13.983 13.3469 13.8348 13.3469 13.6522C13.3469 13.4695 13.4914 13.3214 13.6695 13.3214H14.918V12.0411C14.918 11.8584 15.0625 11.7102 15.2406 11.7102C15.4187 11.7102 15.5632 11.8584 15.5632 12.0411V13.3214H16.8116C16.9897 13.3214 17.1342 13.4695 17.1342 13.6522C17.1342 13.8348 16.9897 13.983 16.8116 13.983H15.5632V15.2633C15.5632 15.446 15.4187 15.5941 15.2406 15.5941C15.0625 15.5941 14.918 15.446 14.918 15.2633V13.983ZM15.2406 10.305C16.079 10.305 16.8444 10.6298 17.4225 11.1631C18.7171 9.53733 19.296 7.88227 19.3523 6.38137C19.4203 4.56176 18.7213 2.96447 17.6006 1.92365C17.4687 1.80131 17.4586 1.59367 17.5779 1.4584C17.6972 1.32314 17.8997 1.3128 18.0316 1.43514C19.2876 2.6017 20.0706 4.38247 19.995 6.40544C19.9328 8.06479 19.2926 9.88608 17.8602 11.6558C18.2651 12.2133 18.5046 12.9051 18.5046 13.6529C18.5046 14.5765 18.1391 15.414 17.5485 16.0195C16.9579 16.6251 16.1422 17 15.2408 17C14.3402 17 13.5227 16.6252 12.9331 16.0195C12.8499 15.9343 12.7718 15.8447 12.6978 15.7507C12.3416 15.9437 11.9711 16.1333 11.5847 16.3194C11.11 16.5477 10.6219 16.7665 10.1212 16.975C10.0405 17.0086 9.95399 17.006 9.87922 16.975C3.32877 14.2533 0.574775 10.5029 0.0824758 7.23159C-0.161158 5.61099 0.148845 4.10406 0.829356 2.89098C1.51322 1.67189 2.57094 0.749156 3.81778 0.301178C5.67445 -0.36566 7.94114 0.0168557 9.99938 2.03378C10.8681 1.18255 11.7762 0.622555 12.6751 0.309802C13.7639 -0.0692948 14.8376 -0.0848001 15.8138 0.184875C15.9852 0.2314 16.0877 0.413198 16.0424 0.58894C15.997 0.764699 15.8197 0.8698 15.6483 0.823284C14.7906 0.586359 13.8446 0.601004 12.8827 0.936148C11.9981 1.24372 11.0958 1.82441 10.2322 2.72991L10.2272 2.73422C10.1003 2.86173 9.89697 2.86001 9.7718 2.72991C7.85211 0.71817 5.73748 0.312363 4.03046 0.924944C2.92989 1.32041 1.99314 2.13802 1.38658 3.22008C0.776655 4.30737 0.499406 5.66432 0.720349 7.13148C1.17905 10.1823 3.78857 13.7 10.0011 16.3123C10.4657 16.1175 10.9034 15.9203 11.3126 15.7229C11.6696 15.5506 12.0141 15.3757 12.3443 15.1974C12.1099 14.7356 11.9763 14.21 11.9763 13.6535C11.9763 12.7299 12.3417 11.8924 12.9323 11.2869C13.523 10.6813 14.3396 10.3064 15.2401 10.3064L15.2406 10.305ZM17.0922 11.7533C16.6184 11.2674 15.9639 10.9667 15.2406 10.9667C14.5172 10.9667 13.8619 11.2674 13.3889 11.7533C12.9151 12.2392 12.6219 12.9103 12.6219 13.6521C12.6219 14.394 12.9151 15.0651 13.3889 15.551C13.8628 16.037 14.5172 16.3376 15.2406 16.3376C15.9639 16.3376 16.6184 16.0369 17.0922 15.551C17.5661 15.0651 17.8593 14.394 17.8593 13.6521C17.8593 12.9103 17.566 12.2392 17.0922 11.7533ZM16.668 1.2423C16.5125 1.15442 16.4554 0.953674 16.5411 0.794298C16.6268 0.634909 16.8225 0.576324 16.9779 0.664203L17.02 0.688328C17.1754 0.776208 17.2325 0.976952 17.1468 1.13633C17.0611 1.29572 16.8654 1.3543 16.71 1.26642L16.668 1.2423Z" fill="#484C52"/>
<path d="M14.918 13.983H17.918V10.983H14.918V13.983ZM14.918 13.3214V16.3214H17.918V13.3214H14.918ZM15.5632 13.3214H12.5632V16.3214H15.5632V13.3214ZM15.5632 13.983V10.983H12.5632V13.983H15.5632ZM15.2406 10.305V7.30499H13.129L12.4165 9.29279L15.2406 10.305ZM17.4225 11.1631L15.3884 13.3682L17.7596 15.5556L19.7693 13.0319L17.4225 11.1631ZM19.3523 6.38137L22.3502 6.49383L22.3502 6.49349L19.3523 6.38137ZM17.6006 1.92365L19.6421 -0.274583L19.6407 -0.275862L17.6006 1.92365ZM17.5779 1.4584L15.328 -0.525969L15.3279 -0.525933L17.5779 1.4584ZM18.0316 1.43514L20.0732 -0.762984L20.0717 -0.764405L18.0316 1.43514ZM19.995 6.40544L22.9929 6.51776L22.9929 6.5175L19.995 6.40544ZM17.8602 11.6558L15.5283 9.76845L14.0805 11.5572L15.4331 13.4191L17.8602 11.6558ZM12.9331 16.0195L15.0826 13.9268L15.081 13.9251L12.9331 16.0195ZM12.6978 15.7507L15.055 13.895L13.4913 11.9088L11.2687 13.113L12.6978 15.7507ZM11.5847 16.3194L12.8851 19.0228L12.8862 19.0223L11.5847 16.3194ZM10.1212 16.975L8.96785 14.2056L8.96747 14.2057L10.1212 16.975ZM9.87922 16.975L8.72813 19.7454L8.72979 19.7461L9.87922 16.975ZM0.0824758 7.23159L-2.88419 7.67758L-2.88412 7.67803L0.0824758 7.23159ZM0.829356 2.89098L3.44578 4.35875L3.4458 4.35871L0.829356 2.89098ZM3.81778 0.301178L2.80373 -2.52224L2.80339 -2.52212L3.81778 0.301178ZM9.99938 2.03378L7.89967 4.1765L9.99933 6.23402L12.099 4.17654L9.99938 2.03378ZM12.6751 0.309802L13.661 3.14319L13.6615 3.14298L12.6751 0.309802ZM15.8138 0.184875L15.015 3.0766L15.0279 3.0801L15.8138 0.184875ZM16.0424 0.58894L18.9471 1.33873L18.9472 1.33867L16.0424 0.58894ZM15.6483 0.823284L14.8496 3.71503L14.8625 3.71852L15.6483 0.823284ZM12.8827 0.936148L13.8679 3.76977L13.8698 3.76911L12.8827 0.936148ZM10.2322 2.72991L12.181 5.01071L12.2975 4.91122L12.4032 4.8004L10.2322 2.72991ZM10.2272 2.73422L8.27831 0.453424L8.18602 0.532283L8.1004 0.618341L10.2272 2.73422ZM9.7718 2.72991L7.60139 4.80101L7.60997 4.80993L9.7718 2.72991ZM4.03046 0.924944L3.01715 -1.89874L3.01598 -1.89832L4.03046 0.924944ZM1.38658 3.22008L4.00303 4.6878L4.00346 4.68702L1.38658 3.22008ZM0.720349 7.13148L3.687 6.68542L3.6869 6.68474L0.720349 7.13148ZM10.0011 16.3123L8.83829 19.0777L9.99921 19.5659L11.1607 19.0791L10.0011 16.3123ZM11.3126 15.7229L12.6157 18.4251L12.6164 18.4248L11.3126 15.7229ZM12.3443 15.1974L13.77 17.837L16.3429 16.4472L15.0194 13.8396L12.3443 15.1974ZM15.2401 10.3064V13.3064H17.3517L18.0642 11.3186L15.2401 10.3064ZM17.0922 11.7533L19.2401 9.65888L19.2401 9.65883L17.0922 11.7533ZM13.3889 11.7533L15.5368 13.8477L15.5387 13.8458L13.3889 11.7533ZM16.668 1.2423L18.1621 -1.35917L18.1533 -1.3642L18.1445 -1.36917L16.668 1.2423ZM16.5411 0.794298L19.1834 2.215L19.1834 2.2149L16.5411 0.794298ZM16.9779 0.664203L18.4721 -1.93726L18.4634 -1.94226L18.4546 -1.94721L16.9779 0.664203ZM17.02 0.688328L15.5258 3.28979L15.5346 3.29482L15.5434 3.29979L17.02 0.688328ZM17.1468 1.13633L14.5045 -0.28437L14.5045 -0.284278L17.1468 1.13633ZM16.71 1.26642L15.2159 3.86789L15.2246 3.87289L15.2333 3.87783L16.71 1.26642ZM14.918 10.983H13.6695V16.983H14.918V10.983ZM13.6695 10.983C15.2191 10.983 16.3469 12.2497 16.3469 13.6522H10.3469C10.3469 15.42 11.7638 16.983 13.6695 16.983V10.983ZM16.3469 13.6522C16.3469 15.0547 15.2191 16.3214 13.6695 16.3214V10.3214C11.7638 10.3214 10.3469 11.8844 10.3469 13.6522H16.3469ZM13.6695 16.3214H14.918V10.3214H13.6695V16.3214ZM17.918 13.3214V12.0411H11.918V13.3214H17.918ZM17.918 12.0411C17.918 13.4436 16.7901 14.7102 15.2406 14.7102V8.71023C13.3348 8.71023 11.918 10.2733 11.918 12.0411H17.918ZM15.2406 14.7102C13.691 14.7102 12.5632 13.4436 12.5632 12.0411H18.5632C18.5632 10.2733 17.1463 8.71023 15.2406 8.71023V14.7102ZM12.5632 12.0411V13.3214H18.5632V12.0411H12.5632ZM15.5632 16.3214H16.8116V10.3214H15.5632V16.3214ZM16.8116 16.3214C15.2621 16.3214 14.1342 15.0547 14.1342 13.6522H20.1342C20.1342 11.8844 18.7174 10.3214 16.8116 10.3214V16.3214ZM14.1342 13.6522C14.1342 12.2497 15.2621 10.983 16.8116 10.983V16.983C18.7174 16.983 20.1342 15.42 20.1342 13.6522H14.1342ZM16.8116 10.983H15.5632V16.983H16.8116V10.983ZM12.5632 13.983V15.2633H18.5632V13.983H12.5632ZM12.5632 15.2633C12.5632 13.8608 13.691 12.5941 15.2406 12.5941V18.5941C17.1463 18.5941 18.5632 17.0311 18.5632 15.2633H12.5632ZM15.2406 12.5941C16.7901 12.5941 17.918 13.8608 17.918 15.2633H11.918C11.918 17.0311 13.3348 18.5941 15.2406 18.5941V12.5941ZM17.918 15.2633V13.983H11.918V15.2633H17.918ZM15.2406 13.305C15.2691 13.305 15.2912 13.31 15.3117 13.3182C15.334 13.3271 15.3608 13.3427 15.3884 13.3682L19.4566 8.95801C18.3536 7.94051 16.8716 7.30499 15.2406 7.30499V13.305ZM19.7693 13.0319C21.4181 10.9613 22.2673 8.70286 22.3502 6.49383L16.3544 6.2689C16.3246 7.06168 16.0161 8.11332 15.0757 9.29428L19.7693 13.0319ZM22.3502 6.49349C22.4495 3.83633 21.428 1.38393 19.6421 -0.274583L15.5591 4.12188C16.0147 4.545 16.3911 5.28718 16.3544 6.26925L22.3502 6.49349ZM19.6407 -0.275862C20.7081 0.714138 20.7797 2.36347 19.8279 3.44274L15.3279 -0.525933C14.1375 0.82387 14.2293 2.88848 15.5605 4.12316L19.6407 -0.275862ZM19.8279 3.44277C18.8358 4.56766 17.1004 4.66317 15.9915 3.63468L20.0717 -0.764405C18.699 -2.03757 16.5587 -1.92139 15.328 -0.525969L19.8279 3.44277ZM15.99 3.63326C16.5866 4.18745 17.0411 5.11592 16.9971 6.29338L22.9929 6.5175C23.1001 3.64902 21.9885 1.01594 20.0732 -0.762984L15.99 3.63326ZM16.9971 6.29312C16.9615 7.2426 16.5934 8.45259 15.5283 9.76845L20.1921 13.5432C21.9919 11.3196 22.9041 8.88699 22.9929 6.51776L16.9971 6.29312ZM15.4331 13.4191C15.4742 13.4757 15.5046 13.553 15.5046 13.6529H21.5046C21.5046 12.2573 21.0561 10.9508 20.2874 9.89264L15.4331 13.4191ZM15.5046 13.6529C15.5046 13.7735 15.4594 13.8649 15.4008 13.9249L19.6962 18.1142C20.8189 16.9631 21.5046 15.3796 21.5046 13.6529H15.5046ZM15.4008 13.9249C15.371 13.9555 15.3413 13.9742 15.317 13.9848C15.295 13.9943 15.2715 14 15.2408 14V20C16.9956 20 18.573 19.2658 19.6962 18.1142L15.4008 13.9249ZM15.2408 14C15.2104 14 15.1865 13.9943 15.1639 13.9846C15.1392 13.9738 15.1104 13.9554 15.0826 13.9268L10.7835 18.1123C11.908 19.2673 13.4887 20 15.2408 20V14ZM15.081 13.9251C15.0756 13.9196 15.067 13.9102 15.055 13.895L10.3407 17.6065C10.4766 17.7791 10.6242 17.9489 10.7852 18.114L15.081 13.9251ZM11.2687 13.113C10.9553 13.2828 10.6274 13.4506 10.2832 13.6164L12.8862 19.0223C13.3149 18.8159 13.728 18.6046 14.127 18.3885L11.2687 13.113ZM10.2842 13.6159C9.85881 13.8205 9.41977 14.0174 8.96785 14.2056L11.2745 19.7445C11.824 19.5156 12.3612 19.2749 12.8851 19.0228L10.2842 13.6159ZM8.96747 14.2057C9.65791 13.9181 10.401 13.9436 11.0286 14.2039L8.72979 19.7461C9.507 20.0685 10.4231 20.0991 11.2749 19.7443L8.96747 14.2057ZM11.0303 14.2046C5.05809 11.7232 3.33075 8.65687 3.04907 6.78515L-2.88412 7.67803C-2.18119 12.349 1.59945 16.7834 8.72813 19.7454L11.0303 14.2046ZM3.04914 6.78559C2.90321 5.81488 3.0959 4.98244 3.44578 4.35875L-1.78707 1.42322C-2.79821 3.22568 -3.22552 5.40709 -2.88419 7.67758L3.04914 6.78559ZM3.4458 4.35871C3.80317 3.72164 4.31517 3.31023 4.83217 3.12448L2.80339 -2.52212C0.82672 -1.81192 -0.77673 -0.377866 -1.78709 1.42326L3.4458 4.35871ZM4.83183 3.1246C5.47544 2.89344 6.55912 2.86286 7.89967 4.1765L12.0991 -0.108935C9.32316 -2.82914 5.87347 -3.62476 2.80373 -2.52224L4.83183 3.1246ZM12.099 4.17654C12.6891 3.59839 13.2262 3.29445 13.661 3.14319L11.6892 -2.52358C10.3263 -2.04934 9.04709 -1.23328 7.89971 -0.108977L12.099 4.17654ZM13.6615 3.14298C14.1772 2.96343 14.6283 2.96974 15.015 3.07657L16.6127 -2.70682C15.047 -3.13934 13.3506 -3.10202 11.6886 -2.52338L13.6615 3.14298ZM15.0279 3.0801C13.5481 2.67839 12.7899 1.18625 13.1375 -0.160787L18.9472 1.33867C19.3855 -0.359849 18.4224 -2.21559 16.5998 -2.71034L15.0279 3.0801ZM13.1376 -0.16085C13.4963 -1.55057 14.9403 -2.47747 16.4342 -2.07195L14.8625 3.71852C16.6992 4.21707 18.4977 3.07997 18.9471 1.33873L13.1376 -0.16085ZM16.4471 -2.06844C14.996 -2.46922 13.4273 -2.43047 11.8956 -1.89681L13.8698 3.76911C14.262 3.63248 14.5851 3.64194 14.8496 3.715L16.4471 -2.06844ZM11.8976 -1.89748C10.4978 -1.4108 9.20292 -0.537672 8.06123 0.659422L12.4032 4.8004C12.9887 4.18648 13.4984 3.89824 13.8679 3.76977L11.8976 -1.89748ZM8.28335 0.449116L8.27831 0.453424L12.176 5.01502L12.181 5.01071L8.28335 0.449116ZM8.1004 0.618341C9.16341 -0.450125 10.8954 -0.42917 11.9336 0.649889L7.60997 4.80993C8.89854 6.14918 11.0372 6.17358 12.3539 4.8501L8.1004 0.618341ZM11.9422 0.658829C9.34689 -2.06093 6.02414 -2.97783 3.01715 -1.89874L5.04376 3.74863C5.31191 3.6524 5.6291 3.62431 6.00871 3.73114C6.39601 3.84013 6.95327 4.12178 7.6014 4.80099L11.9422 0.658829ZM3.01598 -1.89832C1.18328 -1.23979 -0.298422 0.0907396 -1.23031 1.75315L4.00346 4.68702C4.28471 4.1853 4.6765 3.8806 5.04493 3.74821L3.01598 -1.89832ZM-1.22987 1.75237C-2.17355 3.43463 -2.56411 5.46715 -2.2462 7.57822L3.6869 6.68474C3.56292 5.86149 3.72686 5.18012 4.00303 4.6878L-1.22987 1.75237ZM-2.2463 7.57754C-1.57473 12.044 2.07922 16.2356 8.83829 19.0777L11.164 13.5468C5.49791 11.1643 3.93284 8.32046 3.687 6.68542L-2.2463 7.57754ZM11.1607 19.0791C11.6719 18.8649 12.1575 18.6461 12.6157 18.4251L10.0095 13.0207C9.64933 13.1944 9.25958 13.3702 8.84156 13.5454L11.1607 19.0791ZM12.6164 18.4248C13.0086 18.2355 13.3942 18.0399 13.77 17.837L10.9185 12.5578C10.634 12.7115 10.3307 12.8657 10.0087 13.0211L12.6164 18.4248ZM15.0194 13.8396C14.9931 13.7877 14.9763 13.7262 14.9763 13.6535H8.97629C8.97629 14.6939 9.22667 15.6834 9.66909 16.5551L15.0194 13.8396ZM14.9763 13.6535C14.9763 13.5329 15.0215 13.4415 15.08 13.3815L10.7847 9.19225C9.66199 10.3434 8.97629 11.9269 8.97629 13.6535H14.9763ZM15.08 13.3815C15.1094 13.3514 15.1391 13.3325 15.1639 13.3218C15.1865 13.312 15.2101 13.3064 15.2401 13.3064V7.30643C13.4865 7.30643 11.9081 8.04033 10.7847 9.19225L15.08 13.3815ZM18.0642 11.3186L18.0647 11.3172L12.4165 9.29279L12.416 9.29423L18.0642 11.3186ZM19.2401 9.65883C18.2334 8.62646 16.8171 7.96666 15.2406 7.96666V13.9667C15.1108 13.9667 15.0034 13.9082 14.9444 13.8477L19.2401 9.65883ZM15.2406 7.96666C13.6656 7.96666 12.247 8.62543 11.2392 9.66073L15.5387 13.8458C15.4769 13.9093 15.3689 13.9667 15.2406 13.9667V7.96666ZM11.2411 9.65883C10.2357 10.6899 9.62191 12.1069 9.62191 13.6521H15.6219C15.6219 13.7138 15.5946 13.7885 15.5368 13.8477L11.2411 9.65883ZM9.62191 13.6521C9.62191 15.1974 10.2357 16.6144 11.241 17.6454L15.5369 13.4566C15.5945 13.5158 15.6219 13.5905 15.6219 13.6521H9.62191ZM11.241 17.6454C12.2478 18.6779 13.6642 19.3376 15.2406 19.3376V13.3376C15.3703 13.3376 15.4778 13.396 15.5369 13.4566L11.241 17.6454ZM15.2406 19.3376C16.8171 19.3376 18.2334 18.6778 19.24 17.6455L14.9444 13.4565C15.0034 13.3961 15.1108 13.3376 15.2406 13.3376V19.3376ZM19.24 17.6455C20.2456 16.6144 20.8593 15.1974 20.8593 13.6521H14.8593C14.8593 13.5906 14.8866 13.5158 14.9444 13.4565L19.24 17.6455ZM20.8593 13.6521C20.8593 12.1068 20.2455 10.6899 19.2401 9.65888L14.9443 13.8476C14.8866 13.7885 14.8593 13.7138 14.8593 13.6521H20.8593ZM18.1445 -1.36917C19.4344 -0.639835 19.857 0.962093 19.1834 2.215L13.8988 -0.626399C13.0538 0.945255 13.5906 2.94867 15.1914 3.85376L18.1445 -1.36917ZM19.1834 2.2149C18.4956 3.49427 16.8517 4.03923 15.5013 3.27561L18.4546 -1.94721C16.7934 -2.88659 14.758 -2.22445 13.8988 -0.626308L19.1834 2.2149ZM15.4838 3.26567L15.5258 3.28979L18.5141 -1.91314L18.4721 -1.93726L15.4838 3.26567ZM15.5434 3.29979C14.2535 2.57046 13.8309 0.968533 14.5045 -0.28437L19.7891 2.55703C20.6341 0.98537 20.0973 -1.01805 18.4965 -1.92313L15.5434 3.29979ZM14.5045 -0.284278C15.1923 -1.56364 16.8362 -2.10861 18.1866 -1.34499L15.2333 3.87783C16.8945 4.81721 18.9299 4.15508 19.7891 2.55693L14.5045 -0.284278ZM18.2041 -1.33505L18.1621 -1.35917L15.1739 3.84377L15.2159 3.86789L18.2041 -1.33505Z" fill="#484C52" mask="url(#path-1-inside-1_67_427)"/>
</svg>
